<?xml version="1.0" standalone="no"?>
<!DOCTYPE svg PUBLIC "-//W3C//DTD SVG 20010904//EN"
 "http://www.w3.org/TR/2001/REC-SVG-20010904/DTD/svg10.dtd">
<svg version="1.0" xmlns="http://www.w3.org/2000/svg"
 width="486.000000pt" height="486.000000pt" viewBox="0 0 486.000000 486.000000"
 preserveAspectRatio="xMidYMid meet">
<metadata>
Created by potrace 1.14, written by Peter Selinger 2001-2017
</metadata>
<g transform="translate(0.000000,486.000000) scale(0.100000,-0.100000)"
fill="#000000" stroke="none">
<path d="M0 2430 l0 -2430 2430 0 2430 0 -1 1093 c-1 1084 -1 1091 -19 981
-111 -686 -569 -1265 -1205 -1524 -280 -114 -570 -160 -875 -140 -214 14 -337
38 -532 106 -287 99 -548 268 -770 499 -80 83 -188 214 -188 227 0 5 21 8 48
8 44 -1 49 -3 82 -47 54 -73 197 -219 276 -284 305 -249 697 -405 1078 -428
745 -45 1419 319 1784 961 150 266 228 547 239 864 10 295 -40 560 -155 821
-251 567 -740 963 -1355 1099 -141 31 -458 44 -612 24 -490 -61 -952 -319
-1249 -698 -47 -59 -51 -62 -92 -62 -25 0 -44 5 -44 11 0 23 100 141 234 274
211 210 416 342 694 447 252 94 432 122 742 115 255 -6 362 -23 579 -96 690
-231 1204 -838 1321 -1563 18 -113 18 -113 19 1030 l1 1142 -2430 0 -2430 0 0
-2430z m3601 829 c80 -26 143 -58 193 -98 l38 -31 63 65 c54 57 67 65 99 65
l36 0 0 -235 0 -235 -48 0 -48 0 -18 53 c-36 100 -90 191 -153 254 -197 198
-437 163 -565 -82 -68 -130 -95 -277 -105 -555 -13 -415 46 -671 189 -814 81
-80 148 -108 263 -109 94 -1 136 12 228 67 117 70 206 202 230 341 11 62 12
65 39 65 26 0 28 -3 28 -42 -1 -178 -176 -397 -371 -464 -151 -53 -392 -37
-575 36 -172 69 -319 216 -390 391 -105 259 -105 649 1 900 88 209 240 352
440 415 154 48 305 53 426 13z m-2907 -47 c54 -27 76 -46 111 -93 24 -33 166
-295 317 -584 150 -288 275 -524 279 -525 3 0 103 245 223 544 119 299 227
557 239 573 31 42 78 80 124 100 30 13 79 18 236 21 190 4 199 3 195 -14 -2
-14 -22 -24 -76 -38 l-72 -19 0 -798 0 -798 38 -10 c20 -5 53 -14 72 -19 20
-5 36 -15 38 -25 3 -16 -24 -17 -352 -17 -341 0 -356 1 -356 19 0 14 13 21 59
31 32 7 63 15 70 19 8 5 10 182 9 672 l-3 664 -287 -715 -286 -715 -39 -3 -38
-3 -375 720 c-206 396 -378 717 -382 715 -5 -3 -8 -295 -8 -649 l0 -643 78
-30 c42 -16 87 -32 99 -36 14 -4 23 -15 23 -27 0 -18 -9 -19 -236 -19 -218 0
-235 1 -232 17 2 12 35 30 98 54 l95 37 3 780 2 780 -75 18 c-61 14 -75 21
-75 37 0 18 10 18 208 15 l208 -3 68 -33z"/>
</g>
</svg>
